<svg width="40" height="40" viewBox="0 0 40 40" fill="none" xmlns="http://www.w3.org/2000/svg">
<path d="M17.5783 22.0352C17.3374 22.0352 17.1064 22.1278 16.936 22.2927C16.7656 22.4575 16.6699 22.6811 16.6699 22.9143C16.6699 23.1475 16.7656 23.3711 16.936 23.536C17.1064 23.7008 17.3374 23.7935 17.5783 23.7935H22.4232C22.6641 23.7935 22.8952 23.7008 23.0656 23.536C23.2359 23.3711 23.3316 23.1475 23.3316 22.9143C23.3316 22.6811 23.2359 22.4575 23.0656 22.2927C22.8952 22.1278 22.6641 22.0352 22.4232 22.0352H17.5783Z" fill="#645C4F"/>
<path fill-rule="evenodd" clip-rule="evenodd" d="M25.2745 13.7159L26.6429 13.7643C27.1613 13.7902 27.6325 13.8291 28.0601 13.8893C29.3391 14.0674 30.3977 14.452 31.1499 15.358C31.9021 16.2651 32.0668 17.3528 31.9784 18.6079C31.8936 19.8242 31.5544 21.3589 31.1329 23.2758L30.5867 25.7614C30.302 27.0554 30.0707 28.1042 29.78 28.9228C29.4772 29.7781 29.0775 30.48 28.3968 31.0167C27.7161 31.5535 26.9264 31.7859 26.0058 31.8956C25.1216 32.0006 24.0194 32.0006 22.6629 32.0006H17.3383C15.9794 32.0006 14.8784 32.0006 13.9942 31.8956C13.0736 31.7859 12.2839 31.5535 11.6032 31.0167C10.9213 30.48 10.5228 29.7781 10.22 28.924C9.92931 28.1042 9.69917 27.0554 9.41333 25.7625L8.86707 23.277C8.44556 21.3589 8.10763 19.8242 8.02163 18.6079C7.93321 17.3528 8.09794 16.2651 8.85011 15.358C9.60107 14.452 10.6597 14.0674 11.9387 13.8893C12.3663 13.8303 12.8387 13.7902 13.3558 13.7643L16.8042 13.7159H23.197C23.6839 13.7159 24.8336 13.7135 25.2745 13.7159ZM12.4087 15.6128L11.9206 16.5636C11.8662 16.6676 11.8335 16.7812 11.8243 16.8976C11.8152 17.014 11.8298 17.131 11.8674 17.2419C11.9049 17.3528 11.9646 17.4554 12.0431 17.5437C12.1215 17.632 12.2171 17.7043 12.3244 17.7565C12.4316 17.8087 12.5484 17.8396 12.668 17.8476C12.7876 17.8556 12.9077 17.8404 13.0213 17.803C13.1348 17.7656 13.2397 17.7066 13.3297 17.6296C13.4198 17.5525 13.4933 17.4588 13.546 17.354L14.4992 15.4972C15.1896 15.4854 15.9769 15.4842 16.8781 15.4842H23.1231C24.0243 15.4842 24.8116 15.4842 25.502 15.496L26.4552 17.354C26.5639 17.562 26.7527 17.7198 26.9803 17.7929C27.208 17.866 27.4561 17.8485 27.6705 17.7442C27.885 17.6399 28.0485 17.4573 28.1253 17.2362C28.2021 17.015 28.1861 16.7733 28.0807 16.5636L27.5925 15.6128L27.8033 15.6399C28.874 15.7897 29.3985 16.0622 29.7376 16.4692C30.0707 16.8703 30.2342 17.4165 30.1688 18.4333H9.83241C9.767 17.4165 9.93052 16.8703 10.2636 16.4692C10.6027 16.0622 11.1272 15.7897 12.1979 15.6399L12.4087 15.6128ZM10.6597 22.9762C10.4515 22.055 10.2572 21.1308 10.0771 20.204H29.9241C29.7433 21.1308 29.5487 22.0549 29.3403 22.9762L28.8219 25.3355C28.5215 26.698 28.3132 27.6406 28.0625 28.346C27.8202 29.0302 27.5732 29.3912 27.2546 29.6412C26.9373 29.8913 26.5218 30.0518 25.7866 30.1391C25.0247 30.2299 24.034 30.2311 22.6035 30.2311H17.3965C15.9672 30.2311 14.9765 30.2299 14.2146 30.1391C13.4782 30.0518 13.0639 29.8913 12.7466 29.6412C12.4281 29.3912 12.1798 29.029 11.9387 28.346C11.688 27.6406 11.4785 26.698 11.1793 25.3355L10.6597 22.9762Z" fill="#645C4F"/>
<path d="M27.2 17.1445C27.2 17.1445 24.8 8.00167 20 8.00167C15.2 8.00167 12.8 17.1445 12.8 17.1445" stroke="#645C4F" stroke-width="2" stroke-linecap="round" stroke-linejoin="round"/>
</svg>
