<svg width="40" height="40" viewBox="0 0 40 40" fill="none" xmlns="http://www.w3.org/2000/svg">
<path d="M27.7064 8H12.2936C9.92609 8 8 9.92609 8 12.2936V27.7065C8 30.0739 9.92609 32 12.2936 32H27.7065C30.0739 32 32 30.0739 32 27.7064V12.2936C32 9.92609 30.0739 8 27.7064 8ZM30.5938 27.7064C30.5938 29.2985 29.2985 30.5938 27.7064 30.5938H12.2936C10.7015 30.5938 9.40625 29.2985 9.40625 27.7064V12.2936C9.40625 10.7015 10.7015 9.40625 12.2936 9.40625H27.7065C29.2985 9.40625 30.5938 10.7015 30.5938 12.2936V27.7064Z" fill="#645C4F"/>
<path d="M28.2844 13.2719H17.5752C17.2808 12.3974 16.4537 11.7656 15.4812 11.7656C14.5088 11.7656 13.6817 12.3974 13.3872 13.2719H11.7156C11.3273 13.2719 11.0125 13.5867 11.0125 13.975C11.0125 14.3633 11.3273 14.6781 11.7156 14.6781H13.3873C13.6817 15.5526 14.5088 16.1843 15.4813 16.1843C16.4538 16.1843 17.2809 15.5526 17.5753 14.6781H28.2844C28.6727 14.6781 28.9875 14.3633 28.9875 13.975C28.9875 13.5867 28.6727 13.2719 28.2844 13.2719ZM15.4812 14.7781C15.0384 14.7781 14.6781 14.4178 14.6781 13.975C14.6781 13.5322 15.0384 13.1719 15.4812 13.1719C15.9241 13.1719 16.2844 13.5322 16.2844 13.975C16.2844 14.4178 15.9241 14.7781 15.4812 14.7781ZM28.2844 19.2968H26.6127C26.3183 18.4224 25.4911 17.7906 24.5187 17.7906C23.5463 17.7906 22.7192 18.4224 22.4247 19.2968H11.7156C11.3273 19.2968 11.0125 19.6117 11.0125 20C11.0125 20.3883 11.3273 20.7031 11.7156 20.7031H22.4247C22.7192 21.5775 23.5463 22.2093 24.5187 22.2093C25.4912 22.2093 26.3183 21.5775 26.6127 20.7031H28.2844C28.6727 20.7031 28.9875 20.3883 28.9875 20C28.9875 19.6117 28.6727 19.2968 28.2844 19.2968ZM24.5187 20.8031C24.0759 20.8031 23.7156 20.4428 23.7156 20C23.7156 19.5571 24.0759 19.1969 24.5187 19.1969C24.9616 19.1969 25.3219 19.5571 25.3219 20C25.3219 20.4428 24.9616 20.8031 24.5187 20.8031ZM28.2844 25.3218H20.5878C20.2933 24.4474 19.4662 23.8156 18.4938 23.8156C17.5213 23.8156 16.6942 24.4474 16.3998 25.3218H11.7156C11.3273 25.3218 11.0125 25.6366 11.0125 26.025C11.0125 26.4133 11.3273 26.7281 11.7156 26.7281H16.3998C16.6942 27.6025 17.5213 28.2343 18.4938 28.2343C19.4662 28.2343 20.2933 27.6025 20.5878 26.7281H28.2844C28.6727 26.7281 28.9875 26.4133 28.9875 26.025C28.9875 25.6366 28.6727 25.3218 28.2844 25.3218ZM18.4938 26.8281C18.0509 26.8281 17.6907 26.4678 17.6907 26.025C17.6907 25.5822 18.0509 25.2219 18.4938 25.2219C18.9366 25.2219 19.2969 25.5821 19.2969 26.025C19.2969 26.4678 18.9366 26.8281 18.4938 26.8281Z" fill="#645C4F"/>
</svg>
