<svg width="72" height="86" viewBox="0 0 72 86" fill="none" xmlns="http://www.w3.org/2000/svg">
<path d="M12.2943 47.8297H59.7056C63.0402 43.1539 64.9999 37.4484 64.9999 31.2893C64.9999 15.4325 52.0162 2.57812 35.9999 2.57812C19.9837 2.57812 7 15.4325 7 31.2893C7 37.4484 8.95967 43.1539 12.2943 47.8297Z" fill="#545041"/>
<path d="M59.1554 46.5085C57.3519 42.9375 54.1866 41.9403 52.7444 41.6661C52.7444 41.6661 49.0557 40.9994 45.7966 39.6875C45.6964 40.0047 45.4779 40.2862 45.1573 40.4573C42.934 41.6442 39.935 42.6179 36.0788 42.6179C35.3278 42.618 34.5774 42.5791 33.8305 42.5013C33.849 42.5424 33.8665 42.5833 33.886 42.6248C33.0923 42.7242 30.5501 43.1067 28.0369 44.1741C24.0099 45.8841 21.8813 48.5633 21.8813 51.9219V56.3738C26.0596 58.6843 30.8741 60.0017 35.9999 60.0017C45.7951 60.0017 54.4552 55.1932 59.7056 47.831C59.5399 47.3516 59.3573 46.9081 59.1554 46.5085Z" fill="#72AAFC"/>
<path d="M26.3418 39.6289C23.0497 40.978 19.2555 41.6638 19.2555 41.6638C17.8133 41.938 14.648 42.9351 12.8445 46.5062C12.6427 46.9058 12.4601 47.3492 12.2943 47.8286C14.8361 51.3928 18.177 54.3583 22.0589 56.4697V51.9195C22.0589 43.8908 34.1548 42.7686 34.1548 42.7686C34.1133 42.6866 34.0733 42.604 34.0347 42.5206C31.1436 42.2489 28.8127 41.4226 26.9985 40.4537C26.8378 40.3681 26.6966 40.2507 26.5836 40.1088C26.4707 39.9669 26.3883 39.8036 26.3418 39.6289Z" fill="#548BED"/>
<path d="M45.9732 38.6862L43.7004 35.0719C43.3805 34.5633 42.7657 34.3218 42.1789 34.4679C40.4049 34.9099 38.3229 35.2435 36.0788 35.2435C35.8449 35.2435 35.6132 35.239 35.383 35.232V37.1547C35.04 37.323 33.9952 37.9205 33.5357 39.1451C33.157 40.1545 33.2749 41.3236 33.8859 42.6236C33.7639 42.6388 33.6002 42.6609 33.402 42.6911C34.2901 42.7982 35.184 42.8516 36.0786 42.8511C40.0625 42.8511 43.1606 41.8452 45.4575 40.6191C46.1606 40.2439 46.3953 39.3575 45.9732 38.6862Z" fill="#548BED"/>
<path d="M29.9773 34.4641C29.3903 34.3178 28.7754 34.5593 28.4555 35.068L26.1829 38.6821C25.7608 39.3533 25.9954 40.2395 26.6983 40.615C28.6111 41.6365 31.0816 42.503 34.154 42.7651C32.0874 38.6924 35.5607 37.2641 35.5607 37.2641V35.2342C33.5142 35.1878 31.6146 34.8724 29.9773 34.4641Z" fill="#3E7FDD"/>
<path d="M46.4948 33.1191C45.6959 30.3491 45.3648 28.1866 45.293 26.5156C44.6863 28.6832 43.8933 30.6025 42.9275 32.2388C42.374 33.1762 41.6822 34.0264 40.8751 34.7615C39.675 41.6933 41.9191 46.915 43.6851 49.7686C44.0573 50.3698 45.049 50.1177 45.0394 49.4233C44.9599 43.6767 48.6459 40.578 46.4948 33.1191Z" fill="#45304C"/>
<path d="M36.0775 4.61484C37.9389 4.61484 39.518 4.96957 40.8473 5.51613C40.8848 5.2759 40.9045 5.02969 40.9045 4.77902C40.9044 2.13961 38.7433 0 36.0775 0C33.4116 0 31.2504 2.13961 31.2504 4.77902C31.2504 5.02969 31.2701 5.27578 31.3077 5.51613C32.6369 4.96957 34.216 4.61484 36.0775 4.61484Z" fill="#56415E"/>
<path d="M36.0775 3.60234C34.1803 1.72406 36.0775 0 36.0775 0C33.4116 0 31.2504 2.13961 31.2504 4.77902C31.2504 5.02969 31.2701 5.27578 31.3077 5.51613C32.6369 4.96957 34.216 4.61496 36.0775 4.61496V3.60234Z" fill="#45304C"/>
<path d="M30.4643 6.20981C31.9537 5.44902 33.8057 4.92109 36.0775 4.92109C38.3493 4.92109 40.2014 5.44902 41.6908 6.20992C41.9532 6.34441 42.2093 6.49057 42.4583 6.64797C40.9633 4.79219 38.6615 3.60156 36.0775 3.60156C33.4936 3.60156 31.1917 4.79207 29.6968 6.64785C29.9458 6.49043 30.2019 6.34427 30.4643 6.20981Z" fill="#D3DCFB"/>
<path d="M26.6442 19.5495C26.7793 19.1121 26.964 18.7333 27.2139 18.4545C27.4388 18.2036 27.5799 17.8932 27.59 17.5611C27.6484 15.6211 28.4016 9.33559 35.6346 12.0807C35.9188 12.1885 36.236 12.1885 36.5202 12.0807C43.7532 9.33559 44.5064 15.6211 44.5648 17.5611C44.5749 17.8932 44.716 18.2036 44.9409 18.4545C45.1908 18.7333 45.3755 19.1121 45.5106 19.5495V19.5494C45.877 19.3075 46.446 19.1408 46.9602 19.1527L46.9603 19.1512V14.4425C46.9603 10.8743 44.9512 7.56734 41.6907 5.90199C40.2013 5.14121 38.3492 4.61328 36.0774 4.61328C33.8056 4.61328 31.9535 5.14121 30.4641 5.90199C27.2036 7.56734 25.1945 10.8743 25.1945 14.4425V19.1512L25.1946 19.1527C25.7088 19.1409 26.2777 19.3077 26.6442 19.5495Z" fill="#56415E"/>
<path d="M36.0774 4.61328C33.8056 4.61328 31.9535 5.14121 30.4641 5.90199C27.2036 7.56734 25.1945 10.8743 25.1945 14.4425V19.1512L25.1946 19.1527C25.7089 19.1408 26.2777 19.3077 26.6442 19.5494C26.7793 19.112 26.964 18.7332 27.2139 18.4544C27.4388 18.2035 27.5799 17.8931 27.59 17.561C27.6474 15.6582 28.3738 9.57617 35.2261 11.9335C35.1975 11.8965 35.17 11.8592 35.139 11.8227C31.9239 8.03398 36.0774 4.61328 36.0774 4.61328Z" fill="#45304C"/>
<path d="M26.5547 25.1438C26.5547 25.1438 25.9644 21.4452 26.6443 19.2425C26.0274 18.8354 24.8355 18.6367 24.2996 19.1555C23.2021 20.2177 24.0063 21.8217 24.3911 22.8349C24.5071 23.1378 24.5839 23.454 24.6199 23.7759C24.6948 24.4609 25.0699 25.4634 26.6252 25.4399C26.6017 25.3412 26.5776 25.2441 26.5547 25.1438Z" fill="#EEA784"/>
<path d="M47.8553 19.1555C47.3193 18.6367 46.1274 18.8354 45.5106 19.2425C46.1905 21.4452 45.6002 25.1438 45.6002 25.1438C45.5773 25.2441 45.5532 25.3412 45.5297 25.4399C47.0851 25.4636 47.4602 24.461 47.5352 23.7759C47.5696 23.4607 47.6458 23.1461 47.764 22.8349C48.1486 21.8217 48.9528 20.2177 47.8553 19.1555Z" fill="#FFBB99"/>
<path d="M44.9989 18.098C44.7749 17.848 44.6515 17.5558 44.6424 17.2532C44.6077 16.1015 44.3139 13.2827 42.3408 11.9818C40.9411 11.0591 38.9735 11.0687 36.4925 12.0106C36.2253 12.1122 35.9296 12.1122 35.6623 12.0106C35.3727 11.9005 35.0795 11.8002 34.783 11.7098C32.7745 13.0432 32.4748 15.9179 32.4395 17.0936C32.4301 17.4032 32.3042 17.7018 32.0748 17.9575C30.8112 19.3673 31.0879 23.486 31.3827 25.1816C32.0356 28.0346 32.9813 30.5224 34.1932 32.5759C35.1955 34.2741 36.6198 35.6626 38.3534 36.6511C40.2788 35.6752 41.8513 34.2159 42.9274 32.3925C44.1122 30.385 45.037 27.9523 45.6768 25.1571C45.9538 23.4141 46.2488 19.4925 44.9989 18.098Z" fill="#F1BCA2"/>
<path d="M34.2909 32.3917C33.1058 30.3837 32.181 27.9511 31.5426 25.1613C31.2543 23.5032 30.9838 19.4758 32.2193 18.0972C32.4437 17.8471 32.5669 17.5551 32.576 17.2524C32.6107 16.1007 32.9045 13.2816 34.8776 11.9808C34.9625 11.9249 35.0497 11.8724 35.1388 11.8234C32.9036 11.0727 31.1136 11.1243 29.814 11.9808C27.8407 13.2817 27.5471 16.1007 27.5124 17.2524C27.5033 17.5551 27.3801 17.8471 27.1558 18.0972C25.9201 19.4757 26.1907 23.5032 26.4791 25.1613C27.1175 27.9511 28.0423 30.3837 29.2273 32.3917C30.4304 34.4302 32.2524 36.0156 34.4961 36.9767C34.9955 37.1896 35.5335 37.2995 36.0773 37.2995C36.621 37.2995 37.159 37.1896 37.6584 36.9767C37.982 36.8375 38.2992 36.684 38.609 36.5166C36.8001 35.5431 35.319 34.1336 34.2909 32.3917Z" fill="#EFA176"/>
<path d="M53.77 8.60156C51.8732 10.1333 49.9638 12.5916 51.0891 15.8523C53.0976 21.6722 47.8458 29.6207 53.7466 35.4627C57.2191 38.9006 61.3699 38.7366 64.1987 38.0195C64.7223 35.8612 65 33.6082 65 31.2908C64.9999 22.0636 60.6023 13.8541 53.77 8.60156ZM18.2299 8.60156C20.1267 10.1333 22.036 12.5916 20.9107 15.8523C18.9023 21.6722 24.1541 29.6207 18.2533 35.4627C14.7808 38.9006 10.6299 38.7366 7.80122 38.0195C7.27757 35.8612 7 33.6082 7 31.2908C7 22.0636 11.3975 13.8541 18.2299 8.60156Z" fill="#615C4D"/>
<path d="M55.6627 52.3894C55.079 50.0768 53.6315 48.7355 52.458 48.001C51.7181 47.5379 50.7533 48.0591 50.7533 48.9258V56.0098C52.5138 54.9772 54.1593 53.7637 55.6627 52.3894Z" fill="#548BED"/>
<path d="M43.2069 37.3011C43.2069 40.4373 43.7295 43.4959 45.9827 43.875C46.8673 40.8517 47.8645 37.87 46.4946 33.1202C46.4616 33.0057 46.4306 32.8937 46.3991 32.7812C44.9348 33.5584 43.2069 34.9693 43.2069 37.3011Z" fill="#56415E"/>
<g clip-path="url(#clip0_33_2915)">
<path d="M35.1 66.3883C35.1917 66.2309 35.3231 66.1004 35.481 66.0096C35.6389 65.9189 35.8178 65.8711 36 65.8711C36.1821 65.8711 36.3611 65.9189 36.519 66.0096C36.6769 66.1004 36.8083 66.2309 36.9 66.3883L39.2292 70.3866L43.7525 71.3666C43.9304 71.4053 44.0951 71.4899 44.2301 71.6121C44.3651 71.7342 44.4658 71.8896 44.522 72.0628C44.5783 72.236 44.5881 72.4209 44.5506 72.5991C44.5131 72.7772 44.4296 72.9425 44.3083 73.0783L41.225 76.5291L41.6917 81.1333C41.7101 81.3146 41.6806 81.4975 41.6062 81.6639C41.5318 81.8302 41.415 81.9741 41.2676 82.0813C41.1202 82.1884 40.9472 82.2549 40.766 82.2743C40.5848 82.2937 40.4017 82.2652 40.235 82.1916L36 80.325L31.765 82.1916C31.5983 82.2652 31.4151 82.2937 31.2339 82.2743C31.0528 82.2549 30.8798 82.1884 30.7324 82.0813C30.585 81.9741 30.4682 81.8302 30.3938 81.6639C30.3194 81.4975 30.2899 81.3146 30.3083 81.1333L30.775 76.5291L27.6917 73.0791C27.5702 72.9433 27.4865 72.778 27.4488 72.5997C27.4112 72.4214 27.421 72.2364 27.4773 72.0631C27.5335 71.8898 27.6343 71.7342 27.7694 71.612C27.9046 71.4898 28.0694 71.4052 28.2475 71.3666L32.7708 70.3866L35.1 66.3883Z" fill="#36332E"/>
</g>
<g clip-path="url(#clip1_33_2915)">
<path d="M10.92 57.8667C11.03 57.6779 11.1877 57.5212 11.3772 57.4123C11.5667 57.3034 11.7814 57.2461 12 57.2461C12.2185 57.2461 12.4333 57.3034 12.6228 57.4123C12.8123 57.5212 12.9699 57.6779 13.08 57.8667L15.875 62.6647L21.303 63.8407C21.5165 63.8871 21.7141 63.9887 21.8761 64.1353C22.0382 64.2818 22.159 64.4683 22.2264 64.6762C22.2939 64.884 22.3058 65.1058 22.2608 65.3196C22.2158 65.5335 22.1155 65.7317 21.97 65.8947L18.27 70.0357L18.83 75.5607C18.8521 75.7783 18.8167 75.9978 18.7274 76.1974C18.6381 76.3971 18.498 76.5697 18.3211 76.6983C18.1442 76.8268 17.9367 76.9067 17.7192 76.9299C17.5018 76.9532 17.2821 76.919 17.082 76.8307L12 74.5907L6.91799 76.8307C6.7179 76.919 6.49818 76.9532 6.28074 76.9299C6.0633 76.9067 5.85577 76.8268 5.67886 76.6983C5.50195 76.5697 5.36185 76.3971 5.27255 76.1974C5.18326 75.9978 5.14789 75.7783 5.16999 75.5607L5.72999 70.0357L2.02999 65.8957C1.88421 65.7328 1.78374 65.5344 1.7386 65.3204C1.69346 65.1065 1.70523 64.8845 1.77273 64.6765C1.84023 64.4685 1.96111 64.2819 2.12329 64.1352C2.28547 63.9886 2.48329 63.887 2.69699 63.8407L8.12499 62.6647L10.92 57.8667Z" fill="url(#paint0_linear_33_2915)"/>
</g>
<g clip-path="url(#clip2_33_2915)">
<path d="M59.1 59.3883C59.1917 59.2309 59.3231 59.1004 59.481 59.0096C59.6389 58.9189 59.8178 58.8711 60 58.8711C60.1821 58.8711 60.3611 58.9189 60.519 59.0096C60.6769 59.1004 60.8083 59.2309 60.9 59.3883L63.2292 63.3866L67.7525 64.3666C67.9304 64.4053 68.0951 64.4899 68.2301 64.6121C68.3651 64.7342 68.4658 64.8896 68.522 65.0628C68.5783 65.236 68.5881 65.4209 68.5506 65.5991C68.5131 65.7772 68.4296 65.9425 68.3083 66.0783L65.225 69.5291L65.6917 74.1333C65.7101 74.3146 65.6806 74.4975 65.6062 74.6639C65.5318 74.8302 65.415 74.9741 65.2676 75.0813C65.1202 75.1884 64.9472 75.2549 64.766 75.2743C64.5848 75.2937 64.4017 75.2652 64.235 75.1916L60 73.325L55.765 75.1916C55.5983 75.2652 55.4151 75.2937 55.2339 75.2743C55.0528 75.2549 54.8798 75.1884 54.7324 75.0813C54.585 74.9741 54.4682 74.8302 54.3938 74.6639C54.3194 74.4975 54.2899 74.3146 54.3083 74.1333L54.775 69.5291L51.6917 66.0791C51.5702 65.9433 51.4865 65.778 51.4488 65.5997C51.4112 65.4214 51.421 65.2364 51.4773 65.0631C51.5335 64.8898 51.6343 64.7342 51.7694 64.612C51.9046 64.4898 52.0694 64.4052 52.2475 64.3666L56.7708 63.3866L59.1 59.3883Z" fill="#36332E"/>
</g>
<defs>
<linearGradient id="paint0_linear_33_2915" x1="1.16022" y1="60.3521" x2="22.7074" y2="61.2875" gradientUnits="userSpaceOnUse">
<stop stop-color="#C09E6C"/>
<stop offset="0.426246" stop-color="#FFEBCC"/>
<stop offset="1" stop-color="#BF936B"/>
</linearGradient>
<clipPath id="clip0_33_2915">
<rect width="20" height="20" fill="white" transform="translate(26 64)"/>
</clipPath>
<clipPath id="clip1_33_2915">
<rect width="24" height="24" fill="white" transform="translate(0 55)"/>
</clipPath>
<clipPath id="clip2_33_2915">
<rect width="20" height="20" fill="white" transform="translate(50 57)"/>
</clipPath>
</defs>
</svg>
