<svg width="67" height="66" viewBox="0 0 67 66" fill="none" xmlns="http://www.w3.org/2000/svg">
<path d="M58.4999 33.0002C58.4999 19.1921 47.3069 8 33.5003 8C19.693 7.9999 8.50008 19.1919 8.50008 33.0002C8.50008 46.8065 19.693 57.9993 33.5004 57.9993C47.3069 57.9992 58.4999 46.8064 58.4999 33.0002Z" fill="#36332E"/>
<path d="M45.8676 31.7049L28.2373 20.8794C27.756 20.5837 27.1226 20.5709 26.6298 20.8469C26.3833 20.985 26.178 21.1863 26.035 21.43C25.8921 21.6738 25.8166 21.9512 25.8165 22.2338V43.7994C25.8167 44.0816 25.8919 44.3586 26.0343 44.6021C26.1768 44.8456 26.3815 45.0469 26.6273 45.1853C26.8651 45.3186 27.1332 45.3886 27.4058 45.3888C27.6977 45.3888 27.9836 45.3085 28.2326 45.1568L45.8628 34.4167C46.3321 34.1309 46.6242 33.6119 46.6251 33.0623C46.6261 32.5127 46.3359 31.9925 45.8676 31.7049Z" fill="url(#paint0_linear_33_4081)"/>
<defs>
<linearGradient id="paint0_linear_33_4081" x1="25.2588" y1="24.5509" x2="47.0642" y2="25.3129" gradientUnits="userSpaceOnUse">
<stop stop-color="#C09E6C"/>
<stop offset="0.426246" stop-color="#FFEBCC"/>
<stop offset="1" stop-color="#BF936B"/>
</linearGradient>
</defs>
</svg>
